<?xml version="1.0" encoding="UTF-8"?>
<svg width="171px" height="28px" viewBox="0 0 171 28" version="1.1" xmlns="http://www.w3.org/2000/svg" xmlns:xlink="http://www.w3.org/1999/xlink">
    <title>atom/logo/zenner-regular</title>
    <g id="atom/logo/zenner-regular" stroke="none" stroke-width="1" fill="none" fill-rule="evenodd">
        <path d="M65.7591,0.0003 L74.6601,12.5203 L74.6901,0.0003 L83.5691,0.0003 L83.5691,27.7603 L74.6491,27.7603 L65.0401,15.3093 L65.0001,27.7603 L56.2891,27.7603 L56.2891,0.0003 L65.7591,0.0003 Z M52.7404,0.0003 L52.7404,6.2593 L39.7804,6.2593 L39.7804,10.6893 L52.7404,10.6893 L52.7404,16.8503 L39.7804,16.8503 L39.7804,21.3503 L52.7404,21.3503 L52.7404,27.7603 L30.8304,27.7603 L30.8304,0.0003 L52.7404,0.0003 Z M140.1403,0.0003 L140.1403,6.2593 L127.1803,6.2593 L127.1803,10.6893 L140.1403,10.6893 L140.1403,16.8503 L127.1803,16.8503 L127.1803,21.3503 L140.1403,21.3503 L140.1403,27.7603 L118.2303,27.7603 L118.2303,0.0003 L140.1403,0.0003 Z M96.73,0.0003 L105.63,12.5203 L105.66,0.0003 L114.54,0.0003 L114.54,27.7603 L105.62,27.7603 L96.01,15.3093 L95.97,27.7603 L87.26,27.7603 L87.26,0.0003 L96.73,0.0003 Z M27.28,0.0003 L27.28,7.0603 L11.54,21.2903 L27.28,21.3893 L27.28,27.7603 L0,27.7603 L0,20.4903 L15.6,6.4103 L0,6.3103 L0,0.0003 L27.28,0.0003 Z M159.1606,-5.32907052e-15 C164.4546,0.412 168.5446,4.82 168.5596,10.13 L168.5596,10.13 L168.5596,10.15 C168.5526,14.022 166.3466,17.554 162.8706,19.26 L162.8706,19.26 L170.0806,27.76 L159.5996,27.76 L152.4406,19.3 L152.4406,27.76 L143.8306,27.76 L143.8306,-5.32907052e-15 Z M157.2496,6.26 L152.4296,6.26 L152.4296,13.86 L157.2496,13.86 C159.2346,13.709 160.7706,12.06 160.7806,10.07 L160.7806,10.07 L160.7806,10.05 C160.7706,8.06 159.2346,6.411 157.2496,6.26 L157.2496,6.26 Z" fill="#008BD2"></path>
    </g>
</svg>